<mxfile host="app.diagrams.net" modified="2023-09-30T11:12:18.465Z" agent="Mozilla/5.0 (Windows NT 10.0; Win64; x64) AppleWebKit/537.36 (KHTML, like Gecko) Chrome/117.0.0.0 Safari/537.36 Edg/117.0.2045.43" version="21.8.2" etag="k-LvvwbcFa1o5v2ACaon" type="github">
  <diagram name="Page-1" id="WzI8y3cxB99gSLpqVP_u">
    <mxGraphModel>
      <root>
        <mxCell id="0" />
        <mxCell id="1" parent="0" />
      </root>
    </mxGraphModel>
  </diagram>
</mxfile>
